<mxfile host="drawio-plugin" modified="2021-05-05T08:43:28.212Z" agent="5.0 (Windows NT 6.2; Win64; x64) AppleWebKit/537.36 (KHTML, like Gecko) Chrome/87.0.4280.141 Safari/537.36" etag="eaKYXY-5llrA5pHE7Lz4" version="13.7.9" type="embed"><diagram id="AqBBe5epV_7GDrS1h8Bd" name="Page-1"><mxGraphModel dx="823" dy="388" grid="1" gridSize="10" guides="1" tooltips="1" connect="1" arrows="1" fold="1" page="1" pageScale="1" pageWidth="850" pageHeight="1100" math="0" shadow="0"><root><mxCell id="0"/><mxCell id="1" parent="0"/><mxCell id="2" value="" style="rounded=0;whiteSpace=wrap;html=1;" parent="1" vertex="1"><mxGeometry x="460" y="40" width="160" height="320" as="geometry"/></mxCell><mxCell id="3" value="" style="rounded=1;whiteSpace=wrap;html=1;" parent="1" vertex="1"><mxGeometry x="478.75" y="70" width="122.5" height="140" as="geometry"/></mxCell><mxCell id="4" value="对象数据" style="rounded=1;whiteSpace=wrap;html=1;" parent="1" vertex="1"><mxGeometry x="479.37" y="220" width="121.25" height="70" as="geometry"/></mxCell><mxCell id="5" value="对齐填充" style="rounded=1;whiteSpace=wrap;html=1;" parent="1" vertex="1"><mxGeometry x="478.75" y="300" width="122.5" height="50" as="geometry"/></mxCell><mxCell id="6" value="对象头" style="text;html=1;strokeColor=none;fillColor=none;align=center;verticalAlign=middle;whiteSpace=wrap;rounded=0;" parent="1" vertex="1"><mxGeometry x="520" y="70" width="40" height="20" as="geometry"/></mxCell><mxCell id="11" value="Java/Array Object" style="text;html=1;strokeColor=none;fillColor=none;align=center;verticalAlign=middle;whiteSpace=wrap;rounded=0;" parent="1" vertex="1"><mxGeometry x="487.5" y="40" width="105" height="20" as="geometry"/></mxCell><mxCell id="21" style="edgeStyle=orthogonalEdgeStyle;rounded=0;orthogonalLoop=1;jettySize=auto;html=1;exitX=0;exitY=0.5;exitDx=0;exitDy=0;entryX=0.5;entryY=0;entryDx=0;entryDy=0;" edge="1" parent="1" source="13" target="16"><mxGeometry relative="1" as="geometry"/></mxCell><mxCell id="22" value="&amp;nbsp;monitor point&amp;nbsp;" style="edgeLabel;html=1;align=center;verticalAlign=middle;resizable=0;points=[];" vertex="1" connectable="0" parent="21"><mxGeometry x="0.203" y="2" relative="1" as="geometry"><mxPoint as="offset"/></mxGeometry></mxCell><mxCell id="13" value="&lt;span&gt;Mark World&lt;/span&gt;" style="rounded=0;whiteSpace=wrap;html=1;" vertex="1" parent="1"><mxGeometry x="500" y="100" width="80" height="27" as="geometry"/></mxCell><mxCell id="14" value="类型指针" style="rounded=0;whiteSpace=wrap;html=1;" vertex="1" parent="1"><mxGeometry x="500" y="137" width="80" height="27" as="geometry"/></mxCell><mxCell id="15" value="数组长度" style="rounded=0;whiteSpace=wrap;html=1;dashed=1;" vertex="1" parent="1"><mxGeometry x="500" y="170" width="80" height="27" as="geometry"/></mxCell><mxCell id="16" value="" style="rounded=0;whiteSpace=wrap;html=1;" vertex="1" parent="1"><mxGeometry x="225" y="85" width="145" height="275" as="geometry"/></mxCell><mxCell id="17" value="ObjectMonitor" style="text;html=1;strokeColor=none;fillColor=none;align=center;verticalAlign=middle;whiteSpace=wrap;rounded=0;dashed=1;" vertex="1" parent="1"><mxGeometry x="255" y="90" width="90" height="20" as="geometry"/></mxCell><mxCell id="29" style="edgeStyle=orthogonalEdgeStyle;rounded=0;orthogonalLoop=1;jettySize=auto;html=1;exitX=0;exitY=0.5;exitDx=0;exitDy=0;entryX=1;entryY=0.5;entryDx=0;entryDy=0;" edge="1" parent="1" source="18" target="23"><mxGeometry relative="1" as="geometry"/></mxCell><mxCell id="37" style="edgeStyle=orthogonalEdgeStyle;rounded=0;orthogonalLoop=1;jettySize=auto;html=1;entryX=1;entryY=0.5;entryDx=0;entryDy=0;exitX=1;exitY=0.5;exitDx=0;exitDy=0;" edge="1" parent="1" source="18" target="20"><mxGeometry relative="1" as="geometry"/></mxCell><mxCell id="38" value="CAS可重入加锁" style="edgeLabel;html=1;align=center;verticalAlign=middle;resizable=0;points=[];" vertex="1" connectable="0" parent="37"><mxGeometry x="0.2233" y="-3" relative="1" as="geometry"><mxPoint y="-13" as="offset"/></mxGeometry></mxCell><mxCell id="18" value="entryList" style="rounded=1;whiteSpace=wrap;html=1;" vertex="1" parent="1"><mxGeometry x="265" y="127" width="70" height="26" as="geometry"/></mxCell><mxCell id="19" value="waitSet" style="rounded=1;whiteSpace=wrap;html=1;" vertex="1" parent="1"><mxGeometry x="265" y="324" width="70" height="26" as="geometry"/></mxCell><mxCell id="39" value="加锁成功" style="edgeStyle=orthogonalEdgeStyle;rounded=0;orthogonalLoop=1;jettySize=auto;html=1;" edge="1" parent="1" source="20" target="30"><mxGeometry relative="1" as="geometry"/></mxCell><mxCell id="20" value="_count" style="rounded=1;whiteSpace=wrap;html=1;" vertex="1" parent="1"><mxGeometry x="265" y="180" width="70" height="26" as="geometry"/></mxCell><mxCell id="23" value="Thread 1" style="rounded=0;whiteSpace=wrap;html=1;" vertex="1" parent="1"><mxGeometry x="70" y="130" width="70" height="20" as="geometry"/></mxCell><mxCell id="24" value="Thread 2" style="rounded=0;whiteSpace=wrap;html=1;" vertex="1" parent="1"><mxGeometry x="70" y="150" width="70" height="20" as="geometry"/></mxCell><mxCell id="41" style="edgeStyle=orthogonalEdgeStyle;rounded=0;orthogonalLoop=1;jettySize=auto;html=1;exitX=0.5;exitY=1;exitDx=0;exitDy=0;entryX=0;entryY=0.5;entryDx=0;entryDy=0;" edge="1" parent="1" source="26" target="19"><mxGeometry relative="1" as="geometry"/></mxCell><mxCell id="42" value="notify唤醒" style="edgeLabel;html=1;align=center;verticalAlign=middle;resizable=0;points=[];" vertex="1" connectable="0" parent="41"><mxGeometry x="-0.1289" y="37" relative="1" as="geometry"><mxPoint as="offset"/></mxGeometry></mxCell><mxCell id="26" value="Thread 4" style="rounded=0;whiteSpace=wrap;html=1;" vertex="1" parent="1"><mxGeometry x="70" y="190" width="70" height="20" as="geometry"/></mxCell><mxCell id="27" value="Thread 3" style="rounded=0;whiteSpace=wrap;html=1;" vertex="1" parent="1"><mxGeometry x="70" y="170" width="70" height="20" as="geometry"/></mxCell><mxCell id="40" value="wait 操作&lt;br&gt;_count--; _owner=null" style="edgeStyle=orthogonalEdgeStyle;rounded=0;orthogonalLoop=1;jettySize=auto;html=1;" edge="1" parent="1" source="30" target="19"><mxGeometry relative="1" as="geometry"/></mxCell><mxCell id="30" value="_owner" style="rounded=1;whiteSpace=wrap;html=1;" vertex="1" parent="1"><mxGeometry x="265" y="242" width="70" height="26" as="geometry"/></mxCell></root></mxGraphModel></diagram></mxfile>